<?xml version="1.0" encoding="utf-8"?>
<!-- Generator: Adobe Illustrator 27.0.0, SVG Export Plug-In . SVG Version: 6.00 Build 0)  -->
<svg version="1.1" id="Layer_1" xmlns="http://www.w3.org/2000/svg" xmlns:xlink="http://www.w3.org/1999/xlink" x="0px" y="0px"
	 viewBox="0 0 192 192" style="enable-background:new 0 0 192 192;" xml:space="preserve">
<style type="text/css">
	.st0{fill:#FFFFFF;}
</style>
<g id="BACKGROUND">
</g>
<g id="OBJECTS_00000124870243693645323920000006993330128939532209_">
	<g>
		<ellipse class="st0" cx="97.3" cy="149.4" rx="35" ry="5.1"/>
		<path class="st0" d="M132.1,145.1c-1.5-2.7-16.6-5.1-34.8-5.1s-33.3,2.3-34.8,5.1c5.4-2.1,18.9-3.5,34.8-3.5
			C113.2,141.5,126.7,143,132.1,145.1z"/>
		<path class="st0" d="M132.1,117.7c-1.6-3.4-16.6-6.4-34.8-6.4s-33.2,3-34.8,6.4c5.4-2.1,18.9-3.5,34.8-3.5
			C113.2,114.1,126.7,115.6,132.1,117.7z"/>
		<path class="st0" d="M133.5,64.3c-2.8-15.1-16-26.6-31.9-26.6c-3.9,0-7.6,0.7-11.1,2c2.2-0.4,4.4-0.6,6.7-0.6
			C113.8,39.1,128,49.6,133.5,64.3z"/>
		<path class="st0" d="M41,0C18.4,0,0,18.4,0,41v151h151c22.7,0,41-18.4,41-41V0H41z M165.9,100c0,0.1,0,0.2,0,0.3
			c-0.1,0.6-0.2,1.2-0.4,1.7c0,0.1,0,0.2-0.1,0.3c-0.2,0.6-0.3,1.1-0.5,1.7c-3.2,9.2-12,15.8-22.3,15.8c-2.4,0-4.8-0.4-7-1.1V151
			v0.6c0,3.3-17,6.1-38.3,6.1s-38.5-2.7-38.5-6c0,0,0,0,0,0v-32.8c-1.4,0.2-2.9,0.4-4.4,0.4c-16.8,0-30.4-13.6-30.4-30.4
			c0-0.4,0-0.8,0.1-1.2c0-0.8,0.1-1.6,0.2-2.4c0-0.2,0.1-0.4,0.1-0.6c0.1-0.8,0.2-1.6,0.4-2.4c0-0.2,0.1-0.3,0.1-0.5
			c0.2-0.8,0.4-1.6,0.7-2.3c0.1-0.2,0.1-0.3,0.2-0.5c0.3-0.8,0.5-1.5,0.9-2.2c0.1-0.2,0.2-0.3,0.2-0.5c0.3-0.7,0.7-1.4,1.1-2.1
			c0.1-0.2,0.2-0.4,0.3-0.5c0.4-0.7,0.8-1.3,1.2-1.9c0.2-0.2,0.3-0.4,0.5-0.6c0.4-0.6,0.8-1.1,1.3-1.7c0.2-0.2,0.4-0.4,0.6-0.7
			c0.4-0.5,0.9-1,1.3-1.4c0.2-0.2,0.5-0.5,0.8-0.7c0.4-0.4,0.9-0.8,1.3-1.2c0.3-0.3,0.7-0.5,1-0.8c0.4-0.3,0.8-0.7,1.3-0.9
			c0.4-0.3,0.8-0.5,1.3-0.8c0.4-0.2,0.8-0.5,1.2-0.7c0.5-0.3,1-0.5,1.5-0.7c0.4-0.2,0.7-0.4,1.1-0.5c0.6-0.2,1.1-0.4,1.7-0.6
			c0.4-0.1,0.7-0.3,1.1-0.4c0.6-0.2,1.2-0.3,1.8-0.5c0.4-0.1,0.7-0.2,1.1-0.3c0.6-0.1,1.2-0.2,1.8-0.3c0.4-0.1,0.8-0.1,1.2-0.2
			c0.3,0,0.6,0,0.9,0c0.7-0.1,1.4-0.1,2.2-0.1c0.1,0,0.2,0,0.2,0c0.9,0,1.9,0.1,2.8,0.2c0.3,0,0.6,0.1,0.9,0.1
			c0.7,0.1,1.5,0.2,2.2,0.4c0.2,0.1,0.5,0.1,0.7,0.2c0.9,0.2,1.7,0.4,2.6,0.7c0.1,0,0.1,0,0.2,0.1c1,0.3,1.9,0.7,2.9,1.1h0
			c8.2,3.7,14.5,11.1,16.8,20c0-0.2,0-0.5,0-0.7c0-10.9-5.7-20.4-14.4-25.8c0,0-0.1,0-0.1-0.1c5.7-12,17.9-20.2,32-20.2
			c19.2,0,34.8,15.3,35.5,34.4c-6.5,2.4-11.7,7.7-14.1,14.3c3.2-4.7,8-8.2,13.6-9.8c0.1,0,0.3,0,0.4-0.1c1.7-0.4,3.4-0.7,5.1-0.7
			c0.2,0,0.4,0,0.6,0c13.1,0,23.7,10.6,23.7,23.7C166.2,97.5,166.1,98.8,165.9,100z"/>
		<path class="st0" d="M142.7,75.7c-2.4,0-4.8,0.4-7,1.2c1.4-0.2,2.8-0.4,4.2-0.4c10.4,0,19.3,6.6,22.8,15.9
			C161,82.9,152.7,75.7,142.7,75.7z"/>
	</g>
</g>
</svg>
